<?xml version="1.0" encoding="utf-8"?>
<!-- Generator: Adobe Illustrator 30.1.0, SVG Export Plug-In . SVG Version: 9.03 Build 0)  -->
<svg version="1.0" id="Layer_1" xmlns="http://www.w3.org/2000/svg" xmlns:xlink="http://www.w3.org/1999/xlink" x="0px" y="0px"
	 width="38.000000pt" height="38.000000pt" viewBox="0 0 38 38" style="enable-background:new 0 0 38 38;" xml:space="preserve">
<style type="text/css">
	.st0{fill:#0000FF;}
	.st1{fill:#FF0044;}
</style>
<g id="ICON_00000107555185551846628150000014425987315250730933_">
	<path class="st0" d="M29.72,33H8.28C6.47,33,5,31.53,5,29.72V8.28C5,6.47,6.47,5,8.28,5h21.44C31.53,5,33,6.47,33,8.28v21.44
		C33,31.53,31.53,33,29.72,33z"/>
	<g>
		<rect x="16" y="9" width="6" height="2"/>
		<polygon points="29,16 22,16 20,16 20,18 20,22 22,22 22,18 29,18 		"/>
		<rect x="9" y="16" width="2" height="6"/>
		<polygon points="13,23 13,25 13,27 12,27 12,29 13,29 15,29 15,25 19,25 19,23 		"/>
	</g>
	<g>
		<rect x="8" y="8" class="st1" width="8" height="8"/>
		<polygon class="st1" points="22,8 30,8 30,16 26,16 26,12 22,12 		"/>
		<rect x="8" y="22" class="st1" width="4" height="8"/>
		<polygon class="st1" points="19,22 26,22 26,26 31,26 31,30 23,30 23,26 19,26 		"/>
	</g>
</g>
</svg>
